<?xml version="1.0" encoding="UTF-8"?>
<svg width="50px" height="17px" viewBox="0 0 50 17" version="1.1" xmlns="http://www.w3.org/2000/svg" xmlns:xlink="http://www.w3.org/1999/xlink">
    <!-- Generator: Sketch 46.2 (44496) - http://www.bohemiancoding.com/sketch -->
    <title>Group 32</title>
    <desc>Created with Sketch.</desc>
    <defs></defs>
    <g id="최종시안" stroke="none" stroke-width="1" fill="none" fill-rule="evenodd">
        <g id="ANIMEAL_Web01" transform="translate(-575.000000, -808.000000)" fill-rule="nonzero">
            <g id="Group-32" transform="translate(575.000000, 808.000000)">
                <g id="밥그릇" fill="#4A4A4A">
                    <path d="M47.2587413,16.465035 L2.85314685,16.465035 C1.24475524,16.465035 0.0559440559,15.1923077 0.405594406,13.8566434 L3.58391608,2.0034965 C3.84265734,1.03496503 4.85664336,0.346153846 6.03146853,0.346153846 L44.0944056,0.346153846 C45.2622378,0.346153846 46.2727273,1.04545455 46.541958,2.0034965 L49.7202797,13.8566434 C50.0594406,15.1923077 48.8671329,16.465035 47.2587413,16.465035 Z" id="Shape"></path>
                </g>
                <g id="스플래시_시안후보-" transform="translate(18.181818, 4.895105)" fill="#FFFFFF">
                    <path d="M2.1982399,6.99215653 C3.33617163,6.99104698 4.28555838,6.15248975 4.38778642,5.05821333 L9.30685227,5.05821333 C9.39080707,5.97077182 10.0717248,6.7283247 10.9956211,6.93704765 C11.9195173,7.14577059 12.8778476,6.75855008 13.3724107,5.97668805 C13.8669738,5.19482601 13.7861355,4.19480651 13.1719208,3.4965035 C13.7861355,2.79820048 13.8669738,1.79818098 13.3724107,1.01631895 C12.8778476,0.234456908 11.9195173,-0.152763599 10.9956211,0.0559593473 C10.0717248,0.264682294 9.39080707,1.02223517 9.30685227,1.93479366 L4.38778642,1.93479366 C4.30383162,1.02223517 3.62291386,0.264682294 2.69901763,0.0559593473 C1.7751214,-0.152763599 0.816791126,0.234456908 0.322228026,1.01631895 C-0.172335075,1.79818098 -0.0914968434,2.79820048 0.52271785,3.4965035 C-0.0313457831,4.1269789 -0.155756257,5.01074703 0.203918796,5.76113953 C0.563593849,6.51153204 1.3418723,6.99193311 2.1982399,6.99215653 Z" id="Shape"></path>
                </g>
            </g>
        </g>
    </g>
</svg>