<?xml version="1.0" encoding="UTF-8"?>
<svg width="22px" height="22px" viewBox="0 0 22 22" version="1.1" xmlns="http://www.w3.org/2000/svg" xmlns:xlink="http://www.w3.org/1999/xlink">
    <!-- Generator: Sketch 46.2 (44496) - http://www.bohemiancoding.com/sketch -->
    <title>search</title>
    <desc>Created with Sketch.</desc>
    <defs></defs>
    <g id="최종시안" stroke="none" stroke-width="1" fill="none" fill-rule="evenodd">
        <g id="ANIMEAL_Web02" transform="translate(-1075.000000, -69.000000)" fill="#FFFFFF">
            <path d="M1089.51793,82.649657 C1090.05872,82.6462103 1090.80919,82.9606404 1091.1922,83.3436472 L1096.71642,88.867876 C1097.10323,89.254686 1097.10302,89.8863915 1096.71326,90.2761481 L1096.3391,90.6503154 C1095.94441,91.0450042 1095.31883,91.0414874 1094.93082,90.6534768 L1089.40659,85.129248 C1089.03166,84.7543101 1088.73209,84.0309937 1088.72433,83.4905537 C1087.26697,84.8340507 1085.33122,85.652857 1083.20697,85.652857 C1078.67438,85.652857 1075,81.924988 1075,77.3264285 C1075,72.727869 1078.67438,69 1083.20697,69 C1087.73955,69 1091.41394,72.727869 1091.41394,77.3264285 C1091.41394,79.3508292 1090.70185,81.2064919 1089.51793,82.649657 Z M1083.20697,83.090879 C1086.34491,83.090879 1088.88871,80.5100466 1088.88871,77.3264285 C1088.88871,74.1428104 1086.34491,71.561978 1083.20697,71.561978 C1080.06903,71.561978 1077.52522,74.1428104 1077.52522,77.3264285 C1077.52522,80.5100466 1080.06903,83.090879 1083.20697,83.090879 Z" id="search"></path>
        </g>
    </g>
</svg>