<?xml version="1.0" encoding="UTF-8"?>
<svg width="42px" height="44px" viewBox="0 0 42 44" version="1.1" xmlns="http://www.w3.org/2000/svg" xmlns:xlink="http://www.w3.org/1999/xlink">
    <!-- Generator: Sketch 46.2 (44496) - http://www.bohemiancoding.com/sketch -->
    <title>발바닥-채움 copy 8</title>
    <desc>Created with Sketch.</desc>
    <defs></defs>
    <g id="최종시안" stroke="none" stroke-width="1" fill="none" fill-rule="evenodd" opacity="0.2">
        <g id="ANIMEAL_Web01" transform="translate(-1010.000000, -1471.000000)" fill="#FFB74D">
            <g id="Group-30" transform="translate(1002.000000, 1169.000000)">
                <g id="발바닥-채움-copy-8" transform="translate(28.372805, 323.752590) rotate(28.000000) translate(-28.372805, -323.752590) translate(6.872805, 303.752590)">
                    <g id="발바닥-채움" fill-rule="nonzero">
                        <path d="M21.448688,17.2338916 C15.9594752,17.2338916 11.2316327,20.7017734 8.80102041,26.5105419 C6.87857143,31.1058621 7.02376093,35.8758621 9.15393586,38.1094581 C10.2870262,39.2980788 11.595481,39.9001478 13.0443149,39.9001478 C15.1294461,39.8997044 17.0322157,38.6640887 18.711516,37.5734483 C19.7173469,36.9203941 20.8565598,36.18 21.4491254,36.18 C22.0539359,36.18 23.2202624,36.9164039 24.2488338,37.5659113 C25.9451895,38.6370443 27.8676385,39.850936 29.9330904,39.850936 C31.3661808,39.850936 32.6492711,39.2639409 33.7456268,38.105468 C35.925656,35.8035961 36.0870262,30.9591133 34.1392128,26.325665 C31.7453353,20.6326108 27.001312,17.2338916 21.448688,17.2338916 Z" id="Shape"></path>
                        <path d="M15.9664723,15.0863054 C16.2262391,15.0863054 16.4864431,15.0597044 16.7409621,15.0069458 C19.6163265,14.4124138 21.2750729,10.6767488 20.5176385,6.50305419 C19.8332362,2.73546798 17.4087464,0.000886699507 14.7524781,0.000886699507 C14.4931487,0.000886699507 14.2329446,0.0274876847 13.9784257,0.0802463054 C11.1030612,0.674778325 9.44387755,4.41 10.2017493,8.58413793 C10.8857143,12.3517241 13.3102041,15.0863054 15.9664723,15.0863054 Z M14.5027697,2.68714286 C14.5849854,2.67029557 14.6689504,2.66142857 14.7524781,2.66142857 C15.9061224,2.66142857 17.4516035,4.3146798 17.9370262,6.98497537 C18.458309,9.85876847 17.4489796,12.1460099 16.2161808,12.400936 C16.133965,12.4177833 16.05,12.4266502 15.9664723,12.4266502 C14.8123907,12.4266502 13.2669096,10.773399 12.7823615,8.10310345 C12.2610787,5.22842365 13.2704082,2.94162562 14.5027697,2.68714286 Z" id="Shape"></path>
                        <path d="M9.58338192,13.5580788 C8.27099125,11.6255172 6.30174927,10.4253695 4.44402332,10.4253695 C3.54927114,10.4253695 2.71618076,10.7033498 2.03527697,11.2296059 C-0.101895044,12.8819704 -0.21122449,16.4815271 1.78644315,19.4244828 C3.09883382,21.356601 5.0680758,22.5571921 6.92623907,22.5571921 C7.82099125,22.5571921 8.65364431,22.2792118 9.3345481,21.753399 C11.4712828,20.1005911 11.5806122,16.5014778 9.58338192,13.5580788 Z M7.74358601,19.637734 C7.52055394,19.8097537 7.24548105,19.8970936 6.92623907,19.8970936 C5.93396501,19.8970936 4.76501458,19.1194581 3.94766764,17.9157635 C2.68294461,16.0532512 2.76341108,14.0116256 3.62580175,13.3448276 C3.84883382,13.1723645 4.12390671,13.085468 4.44358601,13.085468 C5.43542274,13.085468 6.6048105,13.8631034 7.42172012,15.0663547 C8.68644315,16.9293103 8.60597668,18.9704926 7.74358601,19.637734 Z" id="Shape"></path>
                        <path d="M26.1529155,15.0073892 C26.4069971,15.0601478 26.6676385,15.0867488 26.9274052,15.0867488 L26.9278426,15.0867488 C29.5827988,15.0867488 32.0068513,12.3526108 32.6921283,8.58413793 C33.448688,4.41 31.7899417,0.674778325 28.9141399,0.0806896552 C28.6600583,0.0279310345 28.3998542,0.00133004926 28.1405248,0.00133004926 C25.4842566,0.00133004926 23.0602041,2.73591133 22.3762391,6.50305419 C21.61793,10.6771921 23.2766764,14.4124138 26.1529155,15.0073892 Z M24.9568513,6.98497537 C25.4413994,4.3146798 26.9868805,2.66142857 28.1405248,2.66142857 C28.2240525,2.66142857 28.3084548,2.67029557 28.3897959,2.68714286 C29.6221574,2.94206897 30.6323615,5.228867 30.111516,8.1026601 C29.6260933,10.773399 28.0806122,12.4266502 26.9274052,12.4266502 C26.8438776,12.4266502 26.7594752,12.4177833 26.6776968,12.400936 C25.4440233,12.1460099 24.4346939,9.85921182 24.9568513,6.98497537 Z" id="Shape"></path>
                        <path d="M40.8577259,11.2291626 C40.1772595,10.7029064 39.3446064,10.4253695 38.4498542,10.4253695 C36.5921283,10.4253695 34.6228863,11.6259606 33.3104956,13.5580788 C31.3123907,16.5010345 31.4212828,20.1005911 33.5588921,21.7529557 C34.2393586,22.2792118 35.0720117,22.5567488 35.9667638,22.5567488 C37.8244898,22.5567488 39.7946064,21.3561576 41.1074344,19.4235961 C43.1046647,16.4810837 42.9953353,12.8815271 40.8577259,11.2291626 Z M38.9462099,17.9157635 C38.1284257,19.1194581 36.9590379,19.8970936 35.9667638,19.8970936 C35.6475219,19.8970936 35.372449,19.8097537 35.1498542,19.637734 C34.2865889,18.9704926 34.2069971,16.9293103 35.4712828,15.0663547 C36.2886297,13.8626601 37.4580175,13.0850246 38.4498542,13.0850246 C38.7690962,13.0850246 39.0441691,13.1723645 39.2667638,13.3439409 C40.1300292,14.0116256 40.2104956,16.0532512 38.9462099,17.9157635 Z" id="Shape"></path>
                    </g>
                    <ellipse id="Oval-5" transform="translate(5.082495, 15.840937) rotate(-35.000000) translate(-5.082495, -15.840937) " cx="5.08249479" cy="15.8409373" rx="2.95566502" ry="4.63993215"></ellipse>
                    <ellipse id="Oval-5-Copy" transform="translate(37.594810, 15.840937) scale(1, -1) rotate(-35.000000) translate(-37.594810, -15.840937) " cx="37.5948101" cy="15.8409373" rx="2.95566502" ry="4.63993215"></ellipse>
                    <ellipse id="Oval" cx="15.5172414" cy="7.38916256" rx="3.69458128" ry="5.91133005"></ellipse>
                    <ellipse id="Oval-Copy" cx="27.3399015" cy="7.38916256" rx="3.69458128" ry="5.91133005"></ellipse>
                </g>
            </g>
        </g>
    </g>
</svg>