<?xml version="1.0" encoding="UTF-8"?>
<svg width="10px" height="13px" viewBox="0 0 10 13" version="1.1" xmlns="http://www.w3.org/2000/svg" xmlns:xlink="http://www.w3.org/1999/xlink">
    <!-- Generator: Sketch 46.2 (44496) - http://www.bohemiancoding.com/sketch -->
    <title>Shape</title>
    <desc>Created with Sketch.</desc>
    <defs></defs>
    <g id="최종시안" stroke="none" stroke-width="1" fill="none" fill-rule="evenodd">
        <g id="ANIMEAL_Web02" transform="translate(-922.000000, -27.000000)" fill="#FFFFFF">
            <g id="Group-31" transform="translate(922.000000, 24.000000)">
                <path d="M4.87306217,15.9948325 C2.1815075,15.9948325 0,16.1986889 0,14.0456076 C0,11.8925263 2.1815075,9.49741623 4.87306217,9.49741623 C7.56461685,9.49741623 9.74612434,11.8925263 9.74612434,14.0456076 C9.74612434,16.1986889 7.56461685,15.9948325 4.87306217,15.9948325 L4.87306217,15.9948325 Z M4.87306217,8.84767461 C3.25845424,8.84767461 1.94922487,7.53844524 1.94922487,5.9238373 C1.94922487,4.30922937 3.25845424,3 4.87306217,3 C6.48767011,3 7.79689948,4.30922937 7.79689948,5.9238373 C7.79689948,7.53844524 6.48767011,8.84767461 4.87306217,8.84767461 L4.87306217,8.84767461 Z" id="Shape"></path>
            </g>
        </g>
    </g>
</svg>