<?xml version="1.0" encoding="UTF-8"?>
<svg width="29px" height="30px" viewBox="0 0 29 30" version="1.1" xmlns="http://www.w3.org/2000/svg" xmlns:xlink="http://www.w3.org/1999/xlink">
    <!-- Generator: Sketch 46.2 (44496) - http://www.bohemiancoding.com/sketch -->
    <title>발바닥-채움 copy 8</title>
    <desc>Created with Sketch.</desc>
    <defs></defs>
    <g id="최종시안" stroke="none" stroke-width="1" fill="none" fill-rule="evenodd" opacity="0.2">
        <g id="ANIMEAL_Web01" transform="translate(-131.000000, -2220.000000)" fill="#FFB74D">
            <g id="Group-30-Copy" transform="translate(83.000000, 2134.500000) scale(-1, 1) translate(-83.000000, -2134.500000) translate(0.000000, 2015.000000)">
                <g id="발바닥-채움-copy-8" transform="translate(19.500000, 219.500000) rotate(28.000000) translate(-19.500000, -219.500000) translate(5.000000, 206.000000)">
                    <g id="발바닥-채움" fill-rule="nonzero">
                        <path d="M14.5470537,11.6328768 C10.824128,11.6328768 7.61758311,13.973697 5.96907916,17.8946158 C4.66522465,20.9964569 4.76369592,24.2162069 6.20843553,25.7238842 C6.97692667,26.5262032 7.86435449,26.9325998 8.84699097,26.9325998 C10.2611808,26.9323005 11.5516883,26.0982599 12.6906331,25.3620776 C13.3728135,24.921266 14.1454571,24.4215 14.5473503,24.4215 C14.9575484,24.4215 15.7485812,24.9185727 16.4461849,25.3569901 C17.5966971,26.0800049 18.9005516,26.8993818 20.3013944,26.8993818 C21.2733532,26.8993818 22.1435782,26.5031601 22.887155,25.7211909 C24.365707,24.1674273 24.4751525,20.8974015 23.1540952,17.7698239 C21.5305056,13.9270123 18.3129866,11.6328768 14.5470537,11.6328768 Z" id="Shape"></path>
                        <path d="M10.8288736,10.1832562 C11.0050541,10.1832562 11.1815312,10.1653005 11.3541525,10.1296884 C13.3042989,9.72837931 14.4293035,7.20680542 13.9155919,4.38956158 C13.4514126,1.84644089 11.807061,0.000598522167 10.0055114,0.000598522167 C9.82962746,0.000598522167 9.65315033,0.0185541872 9.48052901,0.0541662562 C7.53038265,0.455475369 6.40508147,2.97675 6.91908963,5.7942931 C7.38297235,8.33741379 9.0273239,10.1832562 10.8288736,10.1832562 Z M9.83615266,1.81382143 C9.8919135,1.80244951 9.94886074,1.79646429 10.0055114,1.79646429 C10.7879427,1.79646429 11.8361279,2.91240887 12.1653541,4.71485837 C12.5189015,6.65466872 11.8343483,8.19855665 10.9982323,8.37063177 C10.9424714,8.38200369 10.8855242,8.38798892 10.8288736,8.38798892 C10.0461456,8.38798892 8.99796048,7.27204433 8.66932745,5.46959483 C8.31578,3.52918596 9.00033328,1.98559729 9.83615266,1.81382143 Z" id="Shape"></path>
                        <path d="M6.49969693,9.1517032 C5.60959971,7.84722414 4.27400898,7.03712438 3.0140513,7.03712438 C2.40720728,7.03712438 1.84218389,7.22476108 1.38037736,7.57998399 C-0.0691078482,8.69533005 -0.1432579,11.1250308 1.21161185,13.1115259 C2.10170907,14.4157057 3.4372998,15.2261047 4.69755408,15.2261047 C5.3043981,15.2261047 5.86912489,15.038468 6.33093142,14.6835443 C7.78012003,13.567899 7.85427008,11.1384975 6.49969693,9.1517032 Z M5.25189986,13.2554704 C5.10063376,13.3715837 4.91407223,13.4305382 4.69755408,13.4305382 C4.02456821,13.4305382 3.23175585,12.9056342 2.67741007,12.0931404 C1.81964227,10.8359446 1.87421671,9.45784729 2.45911232,9.00775862 C2.61037842,8.89134606 2.79693995,8.83269089 3.0137547,8.83269089 C3.68644397,8.83269089 4.47955292,9.35759483 5.03360211,10.1697894 C5.89136991,11.4272845 5.83679547,12.8050825 5.25189986,13.2554704 Z" id="Shape"></path>
                        <path d="M17.7375822,10.1299877 C17.9099069,10.1655998 18.0866806,10.1835554 18.2628611,10.1835554 L18.2631577,10.1835554 C20.0638176,10.1835554 21.7078725,8.33801232 22.1726451,5.7942931 C22.6857634,2.97675 21.5607588,0.455475369 19.6103159,0.0544655172 C19.4379912,0.0188534483 19.261514,0.000897783251 19.0856301,0.000897783251 C17.2840805,0.000897783251 15.6400255,1.84674015 15.1761428,4.38956158 C14.661838,7.20710468 15.7868426,9.72837931 17.7375822,10.1299877 Z M16.9263806,4.71485837 C17.2550136,2.91240887 18.3031988,1.79646429 19.0856301,1.79646429 C19.1422808,1.79646429 19.1995246,1.80244951 19.2546922,1.81382143 C20.0905116,1.98589655 20.7756581,3.52948522 20.4224072,5.46929557 C20.093181,7.27204433 19.0449959,8.38798892 18.2628611,8.38798892 C18.2062105,8.38798892 18.1489667,8.38200369 18.0935024,8.37063177 C17.2567932,8.19855665 16.57224,6.65496798 16.9263806,4.71485837 Z" id="Shape"></path>
                        <path d="M27.7107641,7.57968473 C27.2492542,7.22446182 26.6845274,7.03712438 26.0776834,7.03712438 C24.8177257,7.03712438 23.482135,7.8475234 22.5920378,9.1517032 C21.2368714,11.1381983 21.3107249,13.567899 22.7605067,14.6832451 C23.2220166,15.038468 23.7867434,15.2258054 24.3935874,15.2258054 C25.6535451,15.2258054 26.989729,14.4154064 27.8801228,13.1109273 C29.234696,11.1247315 29.1605459,8.69503079 27.7107641,7.57968473 Z M26.4143246,12.0931404 C25.8596822,12.9056342 25.0665733,13.4305382 24.3935874,13.4305382 C24.1770693,13.4305382 23.9905077,13.3715837 23.8395382,13.2554704 C23.2540494,12.8050825 23.2000682,11.4272845 24.0575394,10.1697894 C24.6118852,9.35729557 25.4049941,8.83239163 26.0776834,8.83239163 C26.2942015,8.83239163 26.4807631,8.89134606 26.6317326,9.0071601 C27.2172214,9.45784729 27.2717958,10.8359446 26.4143246,12.0931404 Z" id="Shape"></path>
                    </g>
                    <ellipse id="Oval-5" transform="translate(3.447079, 10.692633) rotate(-35.000000) translate(-3.447079, -10.692633) " cx="3.44707913" cy="10.6926327" rx="2.00460829" ry="3.1319542"></ellipse>
                    <ellipse id="Oval-5-Copy" transform="translate(25.497770, 10.692633) scale(1, -1) rotate(-35.000000) translate(-25.497770, -10.692633) " cx="25.4977704" cy="10.6926327" rx="2.00460829" ry="3.1319542"></ellipse>
                    <ellipse id="Oval" cx="10.5241935" cy="4.98768473" rx="2.50576037" ry="3.99014778"></ellipse>
                    <ellipse id="Oval-Copy" cx="18.5426267" cy="4.98768473" rx="2.50576037" ry="3.99014778"></ellipse>
                </g>
            </g>
        </g>
    </g>
</svg>