<?xml version="1.0" encoding="UTF-8"?>
<svg width="14px" height="13px" viewBox="0 0 14 13" version="1.1" xmlns="http://www.w3.org/2000/svg" xmlns:xlink="http://www.w3.org/1999/xlink">
    <!-- Generator: Sketch 46.2 (44496) - http://www.bohemiancoding.com/sketch -->
    <title>발바닥-채움</title>
    <desc>Created with Sketch.</desc>
    <defs></defs>
    <g id="최종시안" stroke="none" stroke-width="1" fill="none" fill-rule="evenodd">
        <g id="ANIMEAL_Web02" transform="translate(-1010.000000, -27.000000)" fill="#FFFFFF">
            <g id="Group-19" transform="translate(1010.000000, 24.000000)">
                <g id="발바닥-채움" transform="translate(0.000000, 3.000000)">
                    <g id="Shape" fill-rule="nonzero">
                        <path d="M6.73846283,5.41431429 C5.01393513,5.41431429 3.52860459,6.50380714 2.76498724,8.32872857 C2.16101786,9.772425 2.20663156,11.271 2.87586152,11.9727214 C3.23184074,12.3461464 3.64291363,12.5352964 4.09808892,12.5352964 C4.75316764,12.5351571 5.35095445,12.1469679 5.87853462,11.804325 C6.19453316,11.5991571 6.55243586,11.36655 6.73860022,11.36655 C6.92861152,11.36655 7.29503243,11.5979036 7.61817529,11.8019571 C8.1511137,12.1384714 8.75508309,12.5198357 9.40397923,12.5198357 C9.85420845,12.5198357 10.2573127,12.3354214 10.6017511,11.9714679 C11.2866436,11.2482964 11.3373407,9.72632143 10.7254027,8.27064643 C9.97332617,6.48207857 8.48291217,5.41431429 6.73846283,5.41431429 Z"></path>
                        <path d="M5.01613338,4.73961429 C5.09774344,4.73961429 5.17949089,4.73125714 5.25945226,4.71468214 C6.16279592,4.5279 6.68391873,3.35427857 6.44595809,2.04304286 C6.23094169,0.859392857 5.46924781,0.000278571429 4.63473688,0.000278571429 C4.55326421,0.000278571429 4.47151676,0.00863571429 4.39155539,0.0252107143 C3.48821173,0.211992857 2.96695153,1.385475 3.20504956,2.69685 C3.41992857,3.8805 4.18162245,4.73961429 5.01613338,4.73961429 Z M4.55628681,0.844210714 C4.58211625,0.838917857 4.60849526,0.836132143 4.63473688,0.836132143 C4.99717347,0.836132143 5.4827121,1.35552857 5.63521574,2.19444643 C5.79898542,3.09729643 5.48188776,3.81587143 5.09458345,3.89596071 C5.06875401,3.90125357 5.042375,3.90403929 5.01613338,3.90403929 C4.6535594,3.90403929 4.16802077,3.38464286 4.01579191,2.545725 C3.85202223,1.64259643 4.1691199,0.924160714 4.55628681,0.844210714 Z"></path>
                        <path d="M3.01077915,4.25949643 C2.59846975,3.65235 1.97979956,3.27530357 1.39616399,3.27530357 C1.11506268,3.27530357 0.853333455,3.36263571 0.639416181,3.52796786 C-0.0320120262,4.04708571 -0.0663596939,5.17794643 0.561240889,6.102525 C0.973550292,6.70953214 1.59222048,7.08671786 2.17599344,7.08671786 C2.45709475,7.08671786 2.71868659,6.99938571 2.93260386,6.83419286 C3.60389468,6.31493571 3.63824235,5.18421429 3.01077915,4.25949643 Z M2.4327766,6.16952143 C2.36270736,6.22356429 2.27628863,6.25100357 2.17599344,6.25100357 C1.86425401,6.25100357 1.49700875,6.00669643 1.24022558,5.62853571 C0.842891764,5.04339643 0.868171647,4.40198571 1.13910605,4.1925 C1.20917529,4.13831786 1.29559402,4.11101786 1.3960266,4.11101786 C1.70762864,4.11101786 2.0750113,4.355325 2.33165707,4.73334643 C2.72899089,5.318625 2.70371101,5.95989643 2.4327766,6.16952143 Z"></path>
                        <path d="M8.21637427,4.71482143 C8.29619825,4.73139643 8.37808309,4.73975357 8.45969315,4.73975357 L8.45983054,4.73975357 C9.2939293,4.73975357 10.0554858,3.88077857 10.270777,2.69685 C10.5084628,1.385475 9.98734001,0.211992857 9.08385897,0.02535 C9.00403499,0.008775 8.92228754,0.000417857143 8.84081487,0.000417857143 C8.00630394,0.000417857143 7.24474745,0.859532143 7.02986844,2.04304286 C6.79163302,3.35441786 7.31275583,4.5279 8.21637427,4.71482143 Z M7.84061079,2.19444643 C7.99283965,1.35552857 8.47837828,0.836132143 8.84081487,0.836132143 C8.86705649,0.836132143 8.89357289,0.838917857 8.91912755,0.844210714 C9.30629446,0.9243 9.62366691,1.64273571 9.46003462,2.54558571 C9.30753098,3.38464286 8.82199235,3.90403929 8.45969315,3.90403929 C8.43345153,3.90403929 8.40693513,3.90125357 8.38124308,3.89596071 C7.99366399,3.81587143 7.67656633,3.09743571 7.84061079,2.19444643 Z"></path>
                        <path d="M12.8361356,3.52782857 C12.6223557,3.36249643 12.3607638,3.27530357 12.0796625,3.27530357 C11.496027,3.27530357 10.8773568,3.65248929 10.4650474,4.25949643 C9.8373094,5.184075 9.87151968,6.31493571 10.5430853,6.83405357 C10.7568652,6.99938571 11.018457,7.08657857 11.2995583,7.08657857 C11.8831939,7.08657857 12.5021388,6.70939286 12.9145856,6.10224643 C13.5420488,5.17780714 13.5077012,4.04694643 12.8361356,3.52782857 Z M12.2356009,5.62853571 C11.9786804,6.00669643 11.6112977,6.25100357 11.2995583,6.25100357 C11.1992631,6.25100357 11.1128444,6.22356429 11.0429125,6.16952143 C10.7717034,5.95989643 10.7466983,5.318625 11.1438947,4.73334643 C11.4006778,4.35518571 11.7680605,4.11087857 12.0796625,4.11087857 C12.1799577,4.11087857 12.2663765,4.13831786 12.3363083,4.19222143 C12.6075175,4.40198571 12.6327974,5.04339643 12.2356009,5.62853571 Z"></path>
                    </g>
                    <ellipse id="Oval-5" transform="translate(1.596750, 4.976694) rotate(-35.000000) translate(-1.596750, -4.976694) " cx="1.59675045" cy="4.97669447" rx="1" ry="1.45771202"></ellipse>
                    <ellipse id="Oval-5-Copy" transform="translate(11.811036, 4.976694) scale(1, -1) rotate(-35.000000) translate(-11.811036, -4.976694) " cx="11.8110362" cy="4.97669447" rx="1" ry="1.45771202"></ellipse>
                    <ellipse id="Oval" cx="4.875" cy="2.32142857" rx="1.16071429" ry="1.85714286"></ellipse>
                    <ellipse id="Oval-Copy" cx="8.58928571" cy="2.32142857" rx="1.16071429" ry="1.85714286"></ellipse>
                </g>
            </g>
        </g>
    </g>
</svg>