<?xml version="1.0" encoding="UTF-8"?>
<svg width="33px" height="53px" viewBox="0 0 33 53" version="1.1" xmlns="http://www.w3.org/2000/svg" xmlns:xlink="http://www.w3.org/1999/xlink">
    <!-- Generator: Sketch 46.2 (44496) - http://www.bohemiancoding.com/sketch -->
    <title>Group 6</title>
    <desc>Created with Sketch.</desc>
    <defs></defs>
    <g id="최종시안" stroke="none" stroke-width="1" fill="none" fill-rule="evenodd">
        <g id="ANIMEAL_Web01" transform="translate(-282.000000, -1686.000000)">
            <g id="Group-6" transform="translate(282.000000, 1686.666667)">
                <g id="메달" fill-rule="nonzero" fill="#4FC3F7">
                    <path d="M30.078125,0 L3.42375,0 C1.90496694,0 0.67375,1.23982685 0.67375,2.76923077 L0.67375,11.7069231 C0.676197813,12.6268935 1.1321856,13.4855795 1.890625,13.9984615 L10.594375,19.8346154 C5.38172547,22.6660383 2.74541746,28.7014545 4.19542501,34.4840139 C5.64543256,40.2665732 10.8111061,44.3181433 16.73375,44.3181433 C22.6563939,44.3181433 27.8220674,40.2665732 29.272075,34.4840139 C30.7220825,28.7014545 28.0857745,22.6660383 22.873125,19.8346154 L31.576875,13.9984615 C32.3353144,13.4855795 32.7913022,12.6268935 32.79375,11.7069231 L32.79375,2.75538462 C32.7863664,1.24479358 31.578127,0.0188643183 30.078125,0 Z M26.943125,31.2853846 C26.943125,36.9556497 22.3783882,41.5523077 16.7475,41.5523077 C11.1166118,41.5523077 6.551875,36.9556497 6.551875,31.2853846 C6.551875,25.6151196 11.1166118,21.0184615 16.7475,21.0184615 C19.4527389,21.0166246 22.0478025,22.0975042 23.9613403,24.0231249 C25.8748781,25.9487456 26.9500006,28.5612274 26.95,31.2853846 L26.943125,31.2853846 Z M30.078125,11.6930769 L24.84625,15.1892308 L24.84625,9.94153846 C24.8051622,9.46572389 24.4096059,9.10053498 23.9353125,9.10053498 C23.4610191,9.10053498 23.0654628,9.46572389 23.024375,9.94153846 L23.024375,16.4146154 L19.73125,18.6230769 C17.7610241,18.1457665 15.7064759,18.1457665 13.73625,18.6230769 L10.40875,16.3730769 L10.40875,9.94153846 C10.3676622,9.46572389 9.97210586,9.10053498 9.4978125,9.10053498 C9.02351914,9.10053498 8.62796278,9.46572389 8.586875,9.94153846 L8.586875,15.1476923 L3.430625,11.6861538 L3.430625,2.75538462 L8.586875,2.75538462 L8.586875,5.21307692 C8.55693243,5.55982512 8.7237125,5.89394038 9.01792409,6.07660982 C9.31213568,6.25927926 9.68348932,6.25927926 9.97770091,6.07660982 C10.2719125,5.89394038 10.4386926,5.55982512 10.40875,5.21307692 L10.40875,2.75538462 L23.045,2.75538462 L23.045,5.21307692 C23.0150574,5.55982512 23.1818375,5.89394038 23.4760491,6.07660982 C23.7702607,6.25927926 24.1416143,6.25927926 24.4358259,6.07660982 C24.7300375,5.89394038 24.8968176,5.55982512 24.866875,5.21307692 L24.866875,2.75538462 L30.078125,2.75538462 L30.078125,11.6930769 L30.078125,11.6930769 Z" id="Shape"></path>
                </g>
                <g id="Group-5" transform="translate(1.500000, 20.000000)">
                    <circle id="Oval-2" stroke="#4FC3F7" stroke-width="3" fill="#FFFFFF" cx="15" cy="15" r="15"></circle>
                    <circle id="Oval-2" stroke="#4FC3F7" fill="#FFFFFF" cx="15" cy="15" r="11"></circle>
                    <text id="2" font-family="NanumSquareOTFB, NanumSquareOTF" font-size="20" font-weight="bold" fill="#4FC3F7">
                        <tspan x="8.9" y="22">2</tspan>
                    </text>
                </g>
            </g>
        </g>
    </g>
</svg>