<?xml version="1.0" encoding="UTF-8"?>
<svg width="162px" height="30px" viewBox="0 0 162 30" version="1.1" xmlns="http://www.w3.org/2000/svg" xmlns:xlink="http://www.w3.org/1999/xlink">
    <!-- Generator: Sketch 46.2 (44496) - http://www.bohemiancoding.com/sketch -->
    <title>로고2</title>
    <desc>Created with Sketch.</desc>
    <defs></defs>
    <g id="최종시안" stroke="none" stroke-width="1" fill="none" fill-rule="evenodd">
        <g id="ANIMEAL_Web01" transform="translate(-102.000000, -65.000000)" fill-rule="nonzero" fill="#FFB74D">
            <g id="로고2" transform="translate(102.000000, 65.000000)">
                <path d="M25.2151145,27.607209 C25.2195855,27.9239488 25.1197377,28.2335082 24.930687,28.4890234 C24.7269416,28.7871424 24.4446793,29.0243333 24.1145038,29.1748791 C23.4672556,29.5670361 22.6973874,29.7108143 21.9503817,29.579044 C21.5754253,29.4844708 21.2281034,29.304091 20.9363359,29.0524049 C20.8607548,28.9973713 20.7940415,28.9312999 20.7384733,28.8564461 C20.682487,28.7819489 20.6158316,28.7159349 20.5406107,28.6604873 C20.3247688,28.4232986 20.1341464,28.1647408 19.9717557,27.8888997 C19.8480916,27.6439513 19.7244275,27.3990028 19.5636641,27.1173121 C19.4365335,26.9339205 19.3404626,26.7312172 19.2792366,26.5171884 C19.1947036,26.3068044 19.1285078,26.0896407 19.081374,25.868075 L18.2280916,23.8962399 L7.02412214,23.8962399 L6.17083969,25.868075 C6.08427481,26.0640337 6.04717557,26.3089822 5.9729771,26.5171884 C5.89481928,26.7245634 5.79969404,26.9252716 5.68854962,27.1173121 C5.52778626,27.3990028 5.40412214,27.6439513 5.24335878,27.8888997 C5.10991043,28.1731681 4.93027253,28.4338261 4.71160305,28.6604873 C4.6363821,28.7159349 4.56972671,28.7819489 4.51374046,28.8564461 C4.45788973,28.9310592 4.39121581,28.9970915 4.31587786,29.0524049 C4.02411039,29.304091 3.67678843,29.4844708 3.30183206,29.579044 C2.55482631,29.7108143 1.7849581,29.5670361 1.13770992,29.1748791 C0.80753448,29.0243333 0.525272097,28.7871424 0.321526718,28.4890234 C0.132476009,28.2335082 0.0326282503,27.9239488 0.0370992366,27.607209 C0.0439720308,27.2831337 0.0728925372,26.9598856 0.123664122,26.6396626 C0.16557585,26.3929628 0.231848071,26.1509354 0.321526718,25.9170647 C0.370353899,25.7972313 0.411654047,25.6745231 0.44519084,25.549642 L8.91618321,4.88823993 L9.16351145,4.23912652 C9.28717557,3.92069353 9.44793893,3.67574508 9.57160305,3.3083224 C9.68656436,2.98342409 9.83578576,2.67143228 10.0167939,2.37751828 C10.185571,2.07385932 10.3888781,1.7903244 10.6227481,1.53244611 C10.8138302,1.310836 11.0497574,1.1314207 11.3152672,1.00580694 C12.1744093,0.723697198 13.1025372,0.723697198 13.9616794,1.00580694 C14.2271891,1.1314207 14.4631164,1.310836 14.6541985,1.53244611 C14.8748456,1.80054435 15.0772755,2.08285598 15.2601527,2.37751828 C15.4411608,2.67143228 15.5903822,2.98342409 15.7053435,3.3083224 C15.8290076,3.67574508 15.989771,3.90844611 16.1134351,4.23912652 L16.3607634,4.88823993 L24.8317557,25.549642 C24.8652925,25.6745231 24.9065927,25.7972313 24.9554198,25.9170647 C25.0450985,26.1509354 25.1113707,26.3929628 25.1532824,26.6396626 C25.1957772,26.96044 25.2164345,27.2836852 25.2151145,27.607209 Z M15.4827481,16.7559925 C14.790229,15.2250647 14.0606107,13.5226729 13.2444275,11.7957863 C13.0465649,11.3058894 12.7992366,10.7914977 12.5890076,10.3016007 C12.4282443,10.7914977 12.180916,11.3058894 11.9830534,11.7957863 C11.1668702,13.5349203 10.4372519,15.2250647 9.74473282,16.7559925 L9.0151145,18.5318688 L16.1505344,18.5318688 L15.4827481,16.7559925 Z" id="Shape"></path>
                <path d="M48.8720611,29.02791 C47.4586597,29.9038416 45.6042283,29.569434 44.5932824,28.2563224 C42.8238109,25.9731336 41.1728203,23.6022317 39.6467176,21.1528172 L36.2212214,16.0333946 C35.281374,14.5759513 34.2673282,12.6408585 33.1667176,11.0731884 L33.0430534,26.4804461 L33.0430534,26.8478688 C33.0717348,27.7303899 32.7158611,28.5825148 32.0661069,29.1871265 C31.7546055,29.4202003 31.3888555,29.5718318 31.0025954,29.6280337 C28.319084,30.1179306 27.5029008,27.7296832 27.6636641,25.8313327 L27.6636641,25.145477 L27.750229,21.9978894 L27.750229,16.1436214 L27.750229,10.742508 C27.750229,8.4399925 27.750229,5.65982755 27.9109924,3.39405436 C27.9343428,2.84433132 28.0867739,2.30756912 28.3561832,1.82638425 C28.5097748,1.41032286 28.8138417,1.06553802 29.2094656,0.858837863 C30.1971863,0.230362459 31.4725881,0.264369803 32.4247328,0.944569822 C32.6874144,1.15196819 32.9315268,1.3814387 33.1543511,1.63042549 C33.3997081,1.90013667 33.6308549,2.18220212 33.8468702,2.47549766 C33.9997749,2.77151735 34.1776595,3.05421347 34.378626,3.32056982 L34.8238168,3.96968322 L44.2346565,18.6665904 L44.2346565,16.0823843 C44.2346565,14.3922399 44.2346565,12.5673739 44.1480916,10.6322812 C44.1480916,8.37875539 44.1480916,5.63533271 44.2717557,3.36955951 C44.2920158,2.82396703 44.4312313,2.28917535 44.6798473,1.80188941 C45.0812188,1.12541376 45.7547299,0.650466885 46.5315,0.496140027 C47.3082701,0.341813169 48.1146333,0.522742095 48.7483969,0.993559513 C48.9422654,1.17565135 49.094126,1.3970728 49.1935878,1.64267291 C49.3140947,1.94177611 49.3971559,2.25437167 49.440916,2.57347704 C49.5219081,2.90225216 49.5634169,3.23934902 49.5645802,3.5777657 C49.5645802,10.2771059 49.5645802,17.4540956 49.651145,24.1534358 C49.651145,24.9250234 49.7377099,25.6108791 49.651145,26.3702193 C49.7815053,27.3252865 49.4985699,28.2904647 48.8720611,29.02791 Z" id="Shape"></path>
                <path d="M54.4122137,25.1087348 L54.4122137,21.9244049 L54.4122137,15.9966523 L54.4122137,10.5098069 C54.4122137,8.57471415 54.4122137,7.23974508 54.4987786,5.39038425 L54.4987786,5.23116776 C54.4987786,4.70452858 54.5853435,4.10440487 54.5853435,3.54102343 C54.6387866,2.99647149 54.7895276,2.46566057 55.0305344,1.97335333 C55.2229823,1.58139924 55.5175402,1.24739684 55.8838168,1.00580694 C56.2670727,0.810116583 56.6894957,0.701343379 57.120458,0.687373946 C57.4887964,0.692729164 57.8564141,0.721364705 58.2210687,0.773105904 C58.5810355,0.82716981 58.9121195,0.999747871 59.160916,1.26300281 C59.3637343,1.43739439 59.5171715,1.66111454 59.6061069,1.91211621 C59.7076945,2.21708234 59.7902925,2.52793444 59.8534351,2.84292034 C59.9007538,3.1758701 59.9296519,3.51113358 59.94,3.847209 L59.94,4.81475539 L59.94,5.50061106 L59.6926718,26.4437038 L59.6926718,26.8478688 C59.6926718,27.0070853 59.6926718,27.2520337 59.6061069,27.5704667 C59.519542,27.8888997 59.4453435,28.1338482 59.3216794,28.4522812 C59.177908,28.7357153 58.9706495,28.9828702 58.7157252,29.1748791 C58.4140699,29.4244451 58.0434267,29.5781052 57.6522137,29.6157863 C56.9567618,29.7782623 56.2266383,29.7093959 55.5746565,29.4198276 C55.2723434,29.2194795 55.032503,28.9395303 54.8821374,28.6114977 C54.8083571,28.5503999 54.7635582,28.4616642 54.7584733,28.3665492 C54.7584733,28.2808172 54.6348092,28.2073327 54.5977099,28.1216007 C54.5019337,27.8367599 54.4477975,27.5398134 54.4369466,27.2397863 C54.4369466,26.9948379 54.3503817,26.7131471 54.3132824,26.4314564 C54.2725714,26.2046156 54.2725714,25.9724416 54.3132824,25.7456007 L54.3132824,25.145477 L54.4122137,25.1087348 Z" id="Shape"></path>
                <path d="M88.9639695,28.4522812 C88.8445419,28.7300807 88.6626722,28.9772218 88.4322137,29.1748791 C88.1358908,29.4330093 87.7623333,29.5878776 87.3687023,29.6157863 C86.6816542,29.8325338 85.9363457,29.775416 85.291145,29.4565698 C83.7824427,28.5257657 83.9926718,26.6274152 83.9432061,25.2189616 L83.9432061,22.0836214 L83.9432061,15.95991 L83.9432061,12.4938894 C83.9810819,11.8085466 83.9810819,11.1216652 83.9432061,10.4363224 C79.7015267,17.4173533 78.7740458,18.5073739 77.2158779,18.6298482 C76.3254962,18.7155801 75.4227481,17.699044 74.940458,17.0989203 C73.1439575,14.9138302 71.5621292,12.5639184 70.2164885,10.0811471 C70.2164885,10.2771059 70.1299237,27.2275389 69.9691603,27.2275389 C69.9886433,28.1927603 69.465784,29.0889917 68.6117091,29.5543416 C67.7576341,30.0196915 66.7133808,29.9773146 65.9006107,29.4443224 C65.2517883,28.9426178 64.8402731,28.1983859 64.7629008,27.3867554 C64.7629008,26.6641575 64.6763359,25.9293121 64.6763359,25.2067142 L64.6763359,22.0591265 L64.6763359,15.8496832 L64.6763359,10.4485698 C64.6763359,8.10522962 64.7587786,5.80679663 64.9236641,3.55327085 C64.9412382,3.01153264 65.0673449,2.47865473 65.2946565,1.98560075 C65.4745019,1.58552591 65.7718419,1.24836887 66.1479389,1.01805436 C66.5379688,0.778659728 66.9875534,0.651442979 67.4464122,0.650631678 C67.8023588,0.657522767 68.1575372,0.686154465 68.5099237,0.736363636 C69.6105344,0.932322399 70.3401527,2.30403374 70.9832061,3.0388791 C71.9659589,4.30947132 72.8624348,5.6432922 73.6667176,7.03153889 C75.088855,9.28506467 76.14,11.2324049 77.129313,12.5551265 C77.5886471,12.0097255 78.0022358,11.4280806 78.3659542,10.8159925 C79.5036641,9.07685848 80.4435115,7.66840487 82.2366412,4.69228116 C83.0157252,3.46753889 84.7099237,0.6628791 86.4783206,0.61388941 C86.8343539,0.619034158 87.1896452,0.647674954 87.5418321,0.699621368 C87.8942798,0.74456411 88.2232968,0.898914661 88.4816794,1.14052858 C88.6915332,1.33381057 88.859786,1.56709788 88.9763359,1.82638425 C89.0613431,2.11580906 89.1274341,2.41035724 89.1741985,2.70819869 C89.2215417,3.0411457 89.2504399,3.37641052 89.2607634,3.71248735 C89.2607634,6.70085848 89.3473282,9.68922962 89.3473282,12.6653533 L89.3473282,23.957477 C89.3473282,24.7290647 89.4338931,25.6108791 89.3473282,26.4069616 C89.3290781,27.1044729 89.1996976,27.7947516 88.9639695,28.4522812 L88.9639695,28.4522812 Z" id="Shape"></path>
                <path d="M99.4259542,5.65982755 L99.3393893,11.9917451 L100.971756,11.9917451 L106.833435,11.9917451 L107.031298,11.9917451 L108.910992,11.9917451 C109.532662,12.0484981 110.146308,12.1716889 110.741221,12.3591678 C111.180843,12.4907488 111.574791,12.740958 111.878931,13.0817657 C112.157001,13.4293303 112.301602,13.8632984 112.287023,14.306508 C112.298299,14.6191606 112.269208,14.9319593 112.200458,15.2373121 C112.142338,15.5674598 111.950156,15.8595993 111.668702,16.045642 C111.459169,16.259196 111.186186,16.4008115 110.889618,16.4498069 C110.541576,16.5457722 110.18571,16.6113426 109.826107,16.6457657 C109.452633,16.7282688 109.071047,16.7693465 108.688397,16.7682399 L106.771603,16.7682399 L99.240458,16.7682399 L99.1538931,24.680075 L107.26626,24.7658069 L109.183053,24.7658069 C109.561976,24.7441928 109.941841,24.7441928 110.320763,24.7658069 C110.728855,24.8515389 111.099847,24.8882812 111.421374,24.9617657 C111.714558,25.0666281 111.989806,25.2153192 112.237557,25.4026729 C112.493634,25.6274764 112.678352,25.9210334 112.769313,26.2477451 C112.811093,26.540227 112.811093,26.8370776 112.769313,27.1295595 C112.790662,27.5737093 112.645296,28.009972 112.361221,28.3543018 C112.066771,28.7061276 111.669202,28.9586367 111.223511,29.0768997 C110.629388,29.3269363 109.989309,29.4520521 109.343817,29.4443224 C108.737863,29.4443224 108.107176,29.4443224 107.476489,29.5300544 L107.22916,29.5300544 L100.625496,29.5300544 L96.5940458,29.5300544 C96.0574891,29.5940201 95.5145451,29.4821744 95.0482443,29.2116214 C94.7378774,29.0370094 94.4944298,28.7657661 94.3557252,28.4400337 C94.2892959,28.3734543 94.2459845,28.287665 94.2320611,28.1950853 C94.2320611,28.1093533 94.1083969,28.0358688 94.0712977,27.9501368 C93.9787737,27.6770958 93.9246772,27.3927311 93.9105344,27.1050647 C93.9105344,26.8601162 93.8239695,26.5784255 93.7868702,26.2967348 L93.7868702,25.6353739 L93.7868702,24.9862605 L93.7868702,21.8386729 L93.8734351,16.0333946 L93.8734351,10.6690234 C93.8734351,8.73393065 93.8734351,7.39896157 93.96,5.62308529 L93.96,5.42712652 C93.96,4.86374508 94.0465649,4.3371059 94.0465649,3.81046673 C94.0893374,3.2639847 94.2406269,2.73124227 94.4917557,2.24279663 C94.6599713,1.83548876 94.9601397,1.49512443 95.3450382,1.27525023 C95.7130849,1.03773161 96.1423966,0.910177339 96.5816794,0.907827554 C96.7458052,0.885658449 96.9122101,0.885658449 97.0763359,0.907827554 L97.0763359,0.907827554 L101.392214,0.907827554 L107.501221,0.907827554 L107.661985,0.907827554 C108.267939,0.907827554 108.898626,0.907827554 109.541679,0.993559513 C110.156112,1.01436187 110.762485,1.13861117 111.334809,1.36098219 C111.772904,1.47613411 112.168017,1.71432387 112.472519,2.04683786 C112.709922,2.3758625 112.839438,2.76922235 112.843511,3.17360075 C112.85851,3.47015343 112.829342,3.76727736 112.756947,4.05541518 C112.699127,4.38652628 112.523684,4.68625491 112.26229,4.90048735 C112.016702,5.06034614 111.755734,5.19572825 111.483206,5.3046523 C111.1486,5.37718641 110.810011,5.43034868 110.46916,5.46386879 C110.061258,5.53640127 109.646646,5.56514486 109.232519,5.54960075 L107.40229,5.54960075 L99.2528244,5.54960075 L99.2528244,5.67207498 L99.4259542,5.65982755 Z" id="Shape"></path>
                <path d="M139.468397,27.607209 C139.472868,27.9239488 139.37302,28.2335082 139.183969,28.4890234 C138.980224,28.7871424 138.697962,29.0243333 138.367786,29.1748791 C137.720538,29.5670361 136.95067,29.7108143 136.203664,29.579044 C135.828708,29.4844708 135.481386,29.304091 135.189618,29.0524049 C135.114037,28.9973713 135.047324,28.9312999 134.991756,28.8564461 C134.935769,28.7819489 134.869114,28.7159349 134.793893,28.6604873 C134.578051,28.4232986 134.387429,28.1647408 134.225038,27.8888997 C134.101374,27.6439513 133.97771,27.3990028 133.816947,27.1173121 C133.689816,26.9339205 133.593745,26.7312172 133.532519,26.5171884 C133.447986,26.3068044 133.38179,26.0896407 133.334656,25.868075 L132.481374,23.8962399 L121.277405,23.8962399 L120.399389,25.8803224 C120.312824,26.0762812 120.275725,26.3212296 120.201527,26.5294358 C120.123369,26.7368108 120.028244,26.937519 119.917099,27.1295595 C119.756336,27.4112502 119.632672,27.6561987 119.471908,27.9011471 C119.33846,28.1854155 119.158822,28.4460735 118.940153,28.6727348 C118.864932,28.7281823 118.798276,28.7941964 118.74229,28.8686935 C118.686439,28.9433066 118.619765,29.009339 118.544427,29.0646523 C118.25266,29.3163384 117.905338,29.4967182 117.530382,29.5912915 C116.783376,29.7230618 116.013508,29.5792835 115.36626,29.1871265 C115.036084,29.0365807 114.753822,28.7993898 114.550076,28.5012709 C114.361026,28.2457556 114.261178,27.9361962 114.265649,27.6194564 C114.272522,27.2953811 114.301442,26.972133 114.352214,26.65191 C114.394125,26.4052102 114.460398,26.1631828 114.550076,25.9293121 C114.598904,25.8094788 114.640204,25.6867705 114.67374,25.5618894 L123.144733,4.90048735 L123.392061,4.25137395 C123.515725,3.93294096 123.676489,3.6879925 123.800153,3.32056982 C123.915114,2.99567151 124.064335,2.6836797 124.245344,2.3897657 C124.414121,2.08610674 124.617428,1.80257182 124.851298,1.54469353 C125.04238,1.32308342 125.278307,1.14366812 125.543817,1.01805436 C126.402959,0.735944621 127.331087,0.735944621 128.190229,1.01805436 C128.455739,1.14366812 128.691666,1.32308342 128.882748,1.54469353 C129.103395,1.81279177 129.305825,2.09510341 129.488702,2.3897657 C129.66971,2.6836797 129.818932,2.99567151 129.933893,3.32056982 C130.057557,3.6879925 130.218321,3.92069353 130.341985,4.25137395 L130.589313,4.90048735 L139.060305,25.5618894 C139.093842,25.6867705 139.135142,25.8094788 139.183969,25.9293121 C139.273648,26.1631828 139.33992,26.4052102 139.381832,26.65191 C139.432054,26.9680885 139.460973,27.2872267 139.468397,27.607209 Z M129.736031,16.7559925 C129.043511,15.2250647 128.313893,13.5226729 127.49771,11.7957863 C127.299847,11.3058894 127.052519,10.7914977 126.84229,10.3016007 C126.681527,10.7914977 126.434198,11.3058894 126.236336,11.7957863 C125.420153,13.5349203 124.690534,15.2250647 123.998015,16.7559925 L123.243664,18.5318688 L130.453282,18.5318688 L129.736031,16.7559925 Z" id="Shape"></path>
                <path d="M161.233282,27.5337245 C161.207781,27.9462369 161.05205,28.3403864 160.788092,28.6604873 C160.515443,29.0022347 160.144656,29.2541641 159.72458,29.3830853 C159.13575,29.5859619 158.517743,29.693486 157.894351,29.7015183 C157.288397,29.7015183 156.65771,29.7015183 155.977557,29.8239925 L155.816794,29.8239925 L149.336794,29.8239925 C147.098473,29.8239925 143.475115,30.3873739 142.609466,28.0848585 C142.516746,27.837206 142.46254,27.5770439 142.448702,27.3132709 C142.318476,25.5404301 142.289575,23.7617146 142.362137,21.985642 L142.448702,16.1313739 L142.448702,10.7302605 C142.448702,8.79516776 142.448702,7.46019869 142.535267,5.64758013 L142.535267,5.45162137 C142.535267,4.92498219 142.621832,4.36160075 142.621832,3.83496157 C142.644729,3.28516703 142.797189,2.74830326 143.067023,2.26729147 C143.234423,1.85948567 143.534799,1.5188861 143.920305,1.29974508 C144.288352,1.06222645 144.717664,0.934672184 145.156947,0.932322399 C145.512903,0.9390254 145.868093,0.967658045 146.220458,1.01805436 C146.571109,1.09847641 146.894845,1.26722433 147.160305,1.50795127 C147.349796,1.70768922 147.500689,1.94015364 147.605496,2.19380694 C147.699146,2.48097113 147.765391,2.77620252 147.803359,3.07562137 C147.861758,3.40808947 147.903033,3.743286 147.927023,4.07991003 C147.859314,4.38542373 147.830236,4.69809167 147.840458,5.01071415 L147.840458,5.73331209 L147.679695,24.7413121 L155.742595,24.827044 L157.659389,24.827044 C158.027498,24.8369697 158.394851,24.8655846 158.76,24.912776 C159.119084,24.9507778 159.474654,25.0162937 159.823511,25.1087348 C160.098894,25.1762675 160.350889,25.3158577 160.55313,25.5128997 C160.821288,25.7188266 161.019719,26.0007927 161.121985,26.3212296 C161.20118,26.7205153 161.238477,27.1268407 161.233282,27.5337245 L161.233282,27.5337245 Z" id="Shape"></path>
            </g>
        </g>
    </g>
</svg>